<svg width="121" height="27" viewBox="0 0 121 27" fill="none" xmlns="http://www.w3.org/2000/svg">
<g clip-path="url(#clip0_1019_2)">
<path d="M37.7806 4.21637C37.336 2.55586 36.0303 1.25094 34.3691 0.806444C31.3611 2.38419e-07 19.2937 0 19.2937 0C19.2937 0 7.22641 2.38419e-07 4.21831 0.806444C2.55704 1.25094 1.25152 2.55586 0.806817 4.21637C2.38419e-07 7.22307 0 13.5 0 13.5C0 13.5 2.38419e-07 19.777 0.806817 22.7837C1.25152 24.4442 2.55704 25.7491 4.21831 26.1935C7.22641 27 19.2937 27 19.2937 27C19.2937 27 31.3611 27 34.3691 26.1935C36.0303 25.7491 37.336 24.4442 37.7806 22.7837C38.5875 19.777 38.5875 13.5 38.5875 13.5C38.5875 13.5 38.5842 7.22307 37.7806 4.21637Z" fill="#FF0000"/>
<path d="M15.4314 19.2854L25.4562 13.5006L15.4314 7.71582V19.2854Z" fill="white"/>
<path d="M46.7348 17.555L42.4021 1.91504H46.1821L47.7005 9.00476C48.088 10.751 48.3707 12.24 48.5549 13.4719H48.666C48.7931 12.5893 49.0791 11.1098 49.5206 9.03017L51.0928 1.91504H54.8728L50.4861 17.555V25.0575H46.7317V17.555H46.7348Z" fill="white"/>
<path d="M56.0099 24.5615C55.2477 24.0472 54.7044 23.247 54.3804 22.1612C54.0596 21.0754 53.8977 19.634 53.8977 17.8305V15.3762C53.8977 13.557 54.0819 12.0934 54.4504 10.9917C54.8188 9.88992 55.3938 9.08347 56.1751 8.57865C56.9566 8.07383 57.9825 7.81982 59.2532 7.81982C60.5047 7.81982 61.5052 8.077 62.2612 8.59135C63.014 9.10569 63.5667 9.91214 63.9161 11.0044C64.2655 12.0997 64.4403 13.557 64.4403 15.3762V17.8305C64.4403 19.634 64.2687 21.0817 63.9289 22.1739C63.589 23.2693 63.0363 24.0694 62.2739 24.5742C61.5116 25.0791 60.4761 25.333 59.1705 25.333C57.8237 25.3361 56.7724 25.0759 56.0099 24.5615ZM60.2855 21.9136C60.4951 21.3612 60.6031 20.4626 60.6031 19.2117V13.9444C60.6031 12.7315 60.4983 11.8425 60.2855 11.2838C60.0726 10.7218 59.7011 10.4424 59.1673 10.4424C58.6528 10.4424 58.2875 10.7218 58.0779 11.2838C57.865 11.8457 57.7602 12.7315 57.7602 13.9444V19.2117C57.7602 20.4626 57.8618 21.3643 58.0652 21.9136C58.2685 22.466 58.6337 22.7422 59.1673 22.7422C59.7011 22.7422 60.0726 22.466 60.2855 21.9136Z" fill="white"/>
<path d="M76.7362 25.0606H73.7568L73.4264 22.9905H73.3439C72.5338 24.5526 71.3204 25.3336 69.7004 25.3336C68.5791 25.3336 67.7501 24.9653 67.2165 24.232C66.6829 23.4953 66.416 22.346 66.416 20.7839V8.15063H70.2246V20.5616C70.2246 21.3173 70.3071 21.8538 70.4723 22.1746C70.6375 22.4952 70.9138 22.6571 71.3013 22.6571C71.6317 22.6571 71.9494 22.5555 72.2543 22.3524C72.5593 22.149 72.7816 21.8919 72.9309 21.5808V8.14746H76.7362V25.0606Z" fill="white"/>
<path d="M87.0823 4.97816H83.3023V25.0598H79.5764V4.97816H75.7964V1.91748H87.0823V4.97816Z" fill="white"/>
<path d="M96.2682 25.0606H93.2888L92.9584 22.9905H92.8759C92.0659 24.5526 90.8525 25.3336 89.2324 25.3336C88.1111 25.3336 87.2821 24.9653 86.7485 24.232C86.2149 23.4953 85.948 22.346 85.948 20.7839V8.15063H89.7566V20.5616C89.7566 21.3173 89.8391 21.8538 90.0043 22.1746C90.1695 22.4952 90.4458 22.6571 90.8335 22.6571C91.1637 22.6571 91.4813 22.5555 91.7863 22.3524C92.0913 22.149 92.3136 21.8919 92.4628 21.5808V8.14746H96.2682V25.0606Z" fill="white"/>
<path d="M108.872 10.8521C108.641 9.78539 108.269 9.01387 107.754 8.53444C107.24 8.05503 106.531 7.81691 105.629 7.81691C104.931 7.81691 104.276 8.01375 103.669 8.41062C103.063 8.80749 102.593 9.32502 102.262 9.96953H102.234V1.06055H98.5649V25.057H101.71L102.097 23.4568H102.18C102.475 24.0283 102.917 24.4759 103.504 24.8094C104.092 25.1396 104.746 25.3047 105.464 25.3047C106.751 25.3047 107.7 24.711 108.307 23.5266C108.914 22.3392 109.219 20.4882 109.219 17.9673V15.2908C109.219 13.4016 109.101 11.9189 108.872 10.8521ZM105.382 17.7513C105.382 18.9832 105.331 19.9484 105.229 20.6469C105.127 21.3454 104.959 21.844 104.718 22.136C104.479 22.4312 104.155 22.5773 103.752 22.5773C103.438 22.5773 103.149 22.5043 102.882 22.3551C102.615 22.209 102.399 21.9868 102.234 21.6947V12.0967C102.361 11.6364 102.583 11.2617 102.898 10.9665C103.209 10.6712 103.552 10.5251 103.917 10.5251C104.305 10.5251 104.603 10.6775 104.813 10.9792C105.026 11.2839 105.172 11.7919 105.255 12.5095C105.337 13.227 105.378 14.2462 105.378 15.5701V17.7513H105.382Z" fill="white"/>
<path d="M114.622 18.7263C114.622 19.8121 114.653 20.625 114.717 21.1679C114.78 21.7108 114.914 22.1046 115.117 22.3554C115.32 22.603 115.632 22.7268 116.054 22.7268C116.623 22.7268 117.017 22.5046 117.226 22.0633C117.439 21.6219 117.554 20.8854 117.573 19.8567L120.857 20.0503C120.876 20.1963 120.886 20.3995 120.886 20.6567C120.886 22.2188 120.457 23.3872 119.602 24.1587C118.748 24.9303 117.538 25.3176 115.975 25.3176C114.098 25.3176 112.783 24.7302 112.03 23.5523C111.274 22.3744 110.899 20.5552 110.899 18.0913V15.1386C110.899 12.6018 111.29 10.7476 112.071 9.57926C112.852 8.41086 114.19 7.82666 116.086 7.82666C117.392 7.82666 118.395 8.06479 119.094 8.54421C119.793 9.02362 120.285 9.76657 120.571 10.7794C120.857 11.7922 121 13.1892 121 14.9735V17.8691H114.622V18.7263ZM115.104 10.7572C114.911 10.9953 114.784 11.3858 114.717 11.9287C114.653 12.4716 114.622 13.294 114.622 14.3989V15.6117H117.407V14.3989C117.407 13.313 117.369 12.4907 117.296 11.9287C117.223 11.3667 117.09 10.973 116.896 10.7413C116.702 10.5127 116.404 10.3952 116 10.3952C115.594 10.3984 115.295 10.519 115.104 10.7572Z" fill="white"/>
</g>
<defs>
<clipPath id="clip0_1019_2">
<rect width="121" height="27" fill="white"/>
</clipPath>
</defs>
</svg>
