<!-- icon666.com - MILLIONS vector ICONS FREE --><svg id="Layer_1" enable-background="new 0 0 24 24" viewBox="0 0 24 24" xmlns="http://www.w3.org/2000/svg"><g><g><path d="m18 12.8193c-.1855 0-.3555-.1025-.4424-.2666l-1.4395-2.7334h-8.2363l-1.4395 2.7334c-.1738.3281-.7109.3281-.8848 0l-1.4393-2.7334h-1.7881c-.7334 0-1.3301-.5966-1.3301-1.33v-4.3409c0-.7324.5967-1.3291 1.3301-1.3291h19.3398c.7334 0 1.3301.5967 1.3301 1.3291v4.3408c0 .7334-.5967 1.3301-1.3301 1.3301h-1.7881l-1.4395 2.7334c-.0868.1641-.2568.2666-.4423.2666zm-10.4199-4h8.8398c.1855 0 .3555.1025.4424.2666l1.1377 2.1602 1.1377-2.1602c.0869-.1641.2568-.2666.4424-.2666h2.0898c.1856 0 .3301-.1445.3301-.33v-4.3409c0-.1846-.1445-.3291-.3301-.3291h-19.3398c-.1856 0-.3301.1446-.3301.3291v4.3408c0 .1855.1445.3301.3301.3301h2.0898c.1855 0 .3555.1025.4424.2666l1.1377 2.1602 1.1377-2.1602c.0869-.164.2568-.2666.4424-.2666z"></path></g><g><g><path d="m18 17.8193c-1.1025 0-2-.8975-2-2s.8975-2 2-2 2 .8975 2 2-.8975 2-2 2zm0-3c-.5518 0-1 .4482-1 1s.4482 1 1 1 1-.4482 1-1-.4482-1-1-1z"></path></g><g><path d="m21.5 21.1807c-.2764 0-.5-.2236-.5-.5 0-.4746-.3867-.8613-.8623-.8613h-4.2754c-.4756 0-.8623.3867-.8623.8613 0 .2764-.2236.5-.5.5s-.5-.2236-.5-.5c0-1.0264.835-1.8613 1.8623-1.8613h4.2754c1.0273 0 1.8623.835 1.8623 1.8613 0 .2763-.2236.5-.5.5z"></path></g></g><g><g><path d="m6 17.8193c-1.1025 0-2-.8975-2-2s.8975-2 2-2 2 .8975 2 2-.8975 2-2 2zm0-3c-.5518 0-1 .4482-1 1s.4482 1 1 1 1-.4482 1-1-.4482-1-1-1z"></path></g><g><path d="m9.5 21.1807c-.2764 0-.5-.2236-.5-.5 0-.4746-.3867-.8613-.8623-.8613h-4.2754c-.4756-.0001-.8623.3867-.8623.8613 0 .2764-.2236.5-.5.5s-.5-.2237-.5-.5c0-1.0264.835-1.8613 1.8623-1.8613h4.2754c1.0273 0 1.8623.835 1.8623 1.8613 0 .2763-.2236.5-.5.5z"></path></g></g><g><path d="m7.5 5.8193h-3c-.2764 0-.5-.2236-.5-.5s.2236-.5.5-.5h3c.2764 0 .5.2236.5.5s-.2236.5-.5.5z"></path></g><g><path d="m7.5 7.8193h-3c-.2764 0-.5-.2236-.5-.5s.2236-.5.5-.5h3c.2764 0 .5.2236.5.5s-.2236.5-.5.5z"></path></g><g><path d="m19.5 5.8193h-3c-.2764 0-.5-.2236-.5-.5s.2236-.5.5-.5h3c.2764 0 .5.2236.5.5s-.2236.5-.5.5z"></path></g><g><path d="m19.5 7.8193h-3c-.2764 0-.5-.2236-.5-.5s.2236-.5.5-.5h3c.2764 0 .5.2236.5.5s-.2236.5-.5.5z"></path></g></g></svg>