<!-- icon666.com - MILLIONS vector ICONS FREE --><svg viewBox="0 -11 461.344 461" xmlns="http://www.w3.org/2000/svg"><path d="m461.34375 146.355469-21.34375-21.351563v-45.304687h-16v45.242187l-21.585938 21.03125 11.171876 11.457032 10.414062-10.144532v12.414063h16v-12.0625l10.03125 10.03125zm0 0"></path><path d="m32 407.699219h392.207031c-3.636719-4.710938-6.164062-10.179688-7.398437-16h-352.808594v-16h352.800781c1.234375-5.820313 3.761719-11.289063 7.398438-16h-392.199219zm0 0"></path><path d="m32 327.699219h416v16h-416zm0 0"></path><path d="m32 423.699219h416v16h-416zm0 0"></path><path d="m8 439.699219h8v-112h-8c-4.417969 0-8 3.582031-8 8v96c0 4.417969 3.582031 8 8 8zm0 0"></path><path d="m224 .171875-182.28125 63.089844 182.28125 63.941406 182.289062-63.941406zm0 0"></path><path d="m221.289062 143.21875-141.289062-50.855469v171.335938h288v-171.335938l-141.289062 50.855469c-1.75.648438-3.671876.648438-5.421876 0zm0 0"></path></svg>