<!-- icon666.com - MILLIONS vector ICONS FREE --><svg id="Layer_1" enable-background="new 0 0 100 100" viewBox="0 0 100 100" xmlns="http://www.w3.org/2000/svg"><path d="m20.0996094 69.6582031c-.0107422 0-.0195312 0-.0302734 0-2.7021484 0-5.2392578 1.0493164-7.1455078 2.9560547-1.9140625 1.9135742-2.9638672 4.4619141-2.9560547 7.1757812.0078125 2.7109375 1.0703125 5.2626953 2.9921875 7.1850586 1.9912109 1.9912109 4.6044922 2.987793 7.2128906 2.9873047 2.5917969 0 5.1796875-.9833984 7.1474609-2.9511719 1.9140625-1.9135742 2.9638672-4.4619141 2.9560547-7.175293-.0068359-2.3762207-.8240967-4.6295166-2.3195801-6.4440308l6.7868652-6.7869263c4.0195313 3.6960451 9.3780518 5.9575197 15.2563477 5.9575197 5.8450928 0 11.1774902-2.2346802 15.1893311-5.8936768l6.7896729 6.7896729c-3.2832031 3.9927979-3.0755615 9.9059448.6352539 13.6181641 1.96875 1.9682617 4.5546875 2.9511719 7.1464844 2.9511719 2.609375 0 5.2226562-.996582 7.2138672-2.987793 1.921875-1.921875 2.984375-4.4736328 2.9921875-7.1850586.0078125-2.7133789-1.0419922-5.2617188-2.9560547-7.175293-1.90625-1.9072266-4.4433594-2.9560547-7.1464844-2.9560547-.0087891 0-.0195312 0-.0283203 0-2.3765869.0064087-4.6298828.8239746-6.4443359 2.319397l-6.7866211-6.7866821c3.6960448-4.0196534 5.9575194-9.3781739 5.9575194-15.2563477 0-5.8449707-2.2346191-11.1773682-5.8936768-15.1893311l6.7884521-6.7885132c1.8144531 1.4955444 4.0675049 2.3128052 6.4431152 2.3196411h.0302734c2.7021484 0 5.2392578-1.0493164 7.1455078-2.9560547 1.9140625-1.9135742 2.9638672-4.4619141 2.9560547-7.1757812-.0078125-2.7109375-1.0703125-5.2626953-2.9921875-7.1850586-3.96875-3.9692383-10.4111328-3.9838867-14.3603516-.0361328-1.9140625 1.9135742-2.9638672 4.4619141-2.9560547 7.175293.0068359 2.3762207.8240967 4.6295166 2.3195801 6.4440308l-6.7868652 6.7869263c-4.0195311-3.696045-9.3780516-5.9575196-15.2563475-5.9575196-5.8450928 0-11.1774902 2.2346802-15.1893311 5.8936768l-6.7896729-6.7896729c3.2832031-3.9927979 3.0755615-9.9059448-.6352539-13.6181641-3.9511719-3.9506836-10.3916016-3.9331055-14.3603516.0366211-1.921875 1.921875-2.984375 4.4736328-2.9921875 7.1850586-.0078125 2.7133789 1.0419922 5.2617188 2.9560547 7.175293 1.90625 1.9072266 4.4433594 2.9560547 7.1464844 2.9560547h.0283203c2.3765869-.0064087 4.6298828-.8239746 6.4443359-2.319397l6.7866211 6.7866821c-3.6960448 4.0196534-5.9575194 9.3781739-5.9575194 15.2563477 0 5.8449707 2.2346191 11.1773682 5.8936768 15.1893311l-6.7884521 6.7885132c-1.8144532-1.4955445-4.067505-2.3128052-6.4431153-2.3196412zm5.8066406 15.9389649c-3.1699219 3.168457-8.3427734 3.1533203-11.5322266-.0361328-1.5458984-1.5458984-2.4003906-3.5976562-2.40625-5.7768555-.0068359-2.1772461.8349609-4.2211914 2.3701172-5.7558594 1.5292969-1.5288086 3.5634766-2.3701172 5.7324219-2.3701172h.0234375c2.1787109.0063477 4.2304688.8608398 5.7763672 2.4067383s2.4003906 3.597168 2.40625 5.7763672c.0068359 2.1772461-.834961 4.2211914-2.3701172 5.7558594zm53.9345703-13.8735352h.0234375c2.1689453 0 4.203125.8413086 5.7324219 2.3701172 1.5351562 1.534668 2.3769531 3.5786133 2.3701172 5.7558594-.0058594 2.1791992-.8603516 4.2304688-2.40625 5.7763672-3.1884766 3.1889648-8.3613281 3.2060547-11.5322266.0366211-3.1689453-3.1699219-3.1523438-8.3432617.0361328-11.5327148 1.5458985-1.5454102 3.5976563-2.4003907 5.7763672-2.4062501zm-5.7470703-57.3208008c1.578125-1.578125 3.6533203-2.3662109 5.7333984-2.3662109 2.0966797 0 4.1972656.8012695 5.7988281 2.4023438 1.5458984 1.5458984 2.4003906 3.5976562 2.40625 5.7768555.0068359 2.1772461-.8349609 4.2211914-2.3701172 5.7558594-1.5292969 1.5288086-3.5634766 2.3701172-5.7324219 2.3701172-.0078125 0-.015625 0-.0234375 0-2.1787109-.0063477-4.2304688-.8608398-5.7763672-2.4067383s-2.4003906-3.597168-2.40625-5.7763672c-.0068358-2.1772462.8349611-4.2211915 2.3701173-5.7558595zm-53.9345703 13.8735352c-.0078125 0-.015625 0-.0234375 0-2.1689453 0-4.203125-.8413086-5.7324219-2.3701172-1.5351562-1.534668-2.3769531-3.5786133-2.3701172-5.7558594.0058594-2.1791992.8603516-4.2304688 2.40625-5.7763672 1.6015625-1.6015625 3.7021484-2.402832 5.7998047-2.402832 2.0791016 0 4.1542969.7885742 5.7324219 2.3662109 3.1689453 3.1699219 3.1523438 8.3432617-.0361328 11.5327148-1.5458985 1.5454102-3.5976563 2.4003907-5.7763672 2.4062501zm29.8408203 1.1611328c11.3378906 0 20.5625 9.2241211 20.5625 20.5625s-9.2246094 20.5625-20.5625 20.5625-20.5625-9.2241211-20.5625-20.5625 9.2246094-20.5625 20.5625-20.5625z"></path><path d="m50 57.7661133c4.2773438 0 7.7568359-3.4838867 7.7568359-7.7661133s-3.4794921-7.7661133-7.7568359-7.7661133-7.7568359 3.4838867-7.7568359 7.7661133 3.4794921 7.7661133 7.7568359 7.7661133zm0-13.5322266c3.1748047 0 5.7568359 2.5864258 5.7568359 5.7661133s-2.5820312 5.7661133-5.7568359 5.7661133-5.7568359-2.5864258-5.7568359-5.7661133 2.5820312-5.7661133 5.7568359-5.7661133z"></path><path d="m36.7109375 59.4702148c.2802734.0463867.5673828-.03125.7871094-.2099609.9199219-.7451172 2.2470703-.6743164 3.0869141.1665039.8388672.840332.9101562 2.1704102.1650391 3.09375-.1777344.2202148-.2539062.5058594-.2089844.7861328.0449219.2797852.2060547.5273438.4443359.6811523 1.6943359 1.097168 3.5478516 1.8666992 5.5097656 2.2880859.2753906.0610352.5673828-.0009766.796875-.1679688.2294922-.1665039.3779297-.4228516.4072266-.7050781.1240234-1.1811522 1.1132812-2.0712889 2.3007812-2.0712889s2.1767578.8901367 2.3007812 2.0712891c.0292969.2822266.1777344.5385742.4072266.7050781.171875.125.3779297.1904297.5869141.1904297.0703125 0 .140625-.0073242.2099609-.0224609 1.9619141-.4213867 3.8154297-1.190918 5.5097656-2.2880859.2382812-.1538086.3994141-.4013672.4443359-.6811523.0449219-.2802734-.03125-.565918-.2089844-.7861328-.7451172-.9233398-.6738281-2.253418.1660156-3.0942383.8378906-.840332 2.1660156-.9111328 3.0859375-.1660156.2197266.1787109.5078125.2563477.7871094.2099609.2802734-.0449219.5283203-.206543.6816406-.4448242 1.0947266-1.6958008 1.8642578-3.5517578 2.2851562-5.5161133.0595703-.2773438-.0009766-.5673828-.1679688-.796875-.1660156-.2294922-.4228516-.3779297-.7050781-.4077148-1.1787107-.1240236-2.0673826-1.1147463-2.0673826-2.3046877s.8886719-2.1806641 2.0673828-2.3046875c.2822266-.0297852.5390625-.1782227.7050781-.4077148.1669922-.2294922.2275391-.5195312.1679688-.796875-.4208984-1.9643555-1.1904297-3.8203125-2.2851562-5.5161133-.1533203-.2382812-.4013672-.3999023-.6816406-.4448242-.2792969-.0458984-.5673828.0317383-.7871094.2099609-.9199219.7441406-2.2470703.6748047-3.0869141-.1665039-.8388672-.840332-.9101562-2.1704102-.1650391-3.09375.1777344-.2202148.2539062-.5058594.2089844-.7861328-.0449219-.2797852-.2060547-.5273438-.4443359-.6811523-1.6943359-1.097168-3.5478516-1.8666992-5.5097656-2.2880859-.2753906-.0610352-.5673828.0009766-.796875.1679688-.2294922.1665039-.3779297.4228516-.4072266.7050781-.1240235 1.1811522-1.1132813 2.0712889-2.3007813 2.0712889s-2.1767578-.8901367-2.3007812-2.0712891c-.0292969-.2822266-.1777344-.5385742-.4072266-.7050781-.2294922-.1669922-.5205078-.2280273-.796875-.1679688-1.9619141.4213867-3.8154297 1.190918-5.5097656 2.2880859-.2382812.1538086-.3994141.4013672-.4443359.6811523-.0449219.2802734.03125.565918.2089844.7861328.7451172.9233398.6738281 2.253418-.1660156 3.0942383-.8378906.840332-2.1660156.9101562-3.0859375.1660156-.2197266-.1782227-.5068359-.2558594-.7871094-.2099609-.2802734.0449219-.5283203.206543-.6816406.4448242-1.0947266 1.6958008-1.8642578 3.5517578-2.2851562 5.5161133-.0595703.2773438.0009766.5673828.1679688.796875.1660156.2294922.4228516.3779297.7050781.4077148 1.1787107.1240236 2.0673826 1.1147463 2.0673826 2.3046877s-.8886719 2.1806641-2.0673828 2.3046875c-.2822266.0297852-.5390625.1782227-.7050781.4077148-.1669922.2294922-.2275391.5195312-.1679688.796875.4208984 1.9643555 1.1904297 3.8203125 2.2851562 5.5161133.1533204.2382813.4013673.3999024.6816407.4448242zm1.9736328-9.4702148c0-1.8256836-1.125-3.3999023-2.7509766-4.0273438.3056641-1.0737305.7333984-2.1054688 1.2773438-3.0839844 1.5947266.7060547 3.5.3876953 4.7880859-.9013672 1.2890625-1.2900391 1.6054688-3.1992188.8994141-4.7939453.9775391-.5454102 2.0068359-.9736328 3.078125-1.2792969.6269531 1.6274415 2.1992187 2.7543946 4.0234375 2.7543946s3.3964844-1.1269531 4.0234375-2.7543945c1.0712891.3056641 2.1005859.7338867 3.078125 1.2792969-.7060547 1.5947265-.3896484 3.5039062.8984375 4.793457 1.2900391 1.2895508 3.1953125 1.6079102 4.7890625.9018555.5439453.9785156.9716797 2.0102539 1.2773438 3.0839844-1.6259766.6274414-2.7509766 2.2016601-2.7509766 4.0273437s1.125 3.3999023 2.7509766 4.0273438c-.3056641 1.0737305-.7333984 2.1054688-1.2773438 3.0839844-1.59375-.7050781-3.5-.3881836-4.7880859.9013672-1.2890625 1.2900391-1.6054688 3.1992188-.8994141 4.7939453-.9775391.5454102-2.0068359.9736328-3.078125 1.2792969-.6269531-1.6274415-2.1992187-2.7543946-4.0234375-2.7543946s-3.3964844 1.1269531-4.0234375 2.7543945c-1.0712891-.3056641-2.1005859-.7338867-3.078125-1.2792969.7060547-1.5947265.3896484-3.5039062-.8984375-4.793457-1.2890625-1.2900391-3.1943359-1.6069336-4.7890625-.9018555-.5439453-.9785156-.9716797-2.0102539-1.2773438-3.0839844 1.6259766-.6274414 2.7509766-2.2016601 2.7509766-4.0273437z"></path></svg>