<svg width="1920" height="1080" viewBox="0 0 1920 1080" fill="none" xmlns="http://www.w3.org/2000/svg">
<path d="M722.013 508.183C721.911 508.997 721.758 509.76 721.656 510.575C720.995 515.306 718.96 519.377 715.551 522.684C708.988 529.146 702.375 535.557 695.761 542.019C688.842 548.786 681.923 555.553 675.004 562.32C670.272 566.899 665.592 571.478 660.86 576.057C656.79 579.975 654.45 584.758 653.89 590.406C653.636 593.052 654.094 595.697 654.552 598.292C655.62 604.347 656.637 610.453 657.706 616.507C659.029 624.139 660.351 631.771 661.674 639.403C662.844 646.323 664.014 653.243 665.185 660.112C665.846 664.03 666.609 667.947 667.169 671.916C668.135 678.785 666.253 684.84 661.521 689.928C657.909 693.744 653.483 696.033 648.294 696.746C643.868 697.356 639.696 696.491 635.728 694.507C630.793 691.963 625.858 689.317 620.974 686.722C612.325 682.194 603.727 677.615 595.078 673.086C589.227 669.983 583.326 666.93 577.475 663.877C574.27 662.198 571.065 660.468 567.809 658.84C560.737 655.227 553.716 655.329 546.695 658.992C535.808 664.691 524.971 670.39 514.084 676.088C504.825 680.973 495.565 685.857 486.306 690.691C483.508 692.166 480.71 693.693 477.81 695.067C475.011 696.389 472.01 697 468.957 696.898C458.121 696.593 449.319 688.605 447.742 678.53C447.233 675.427 447.59 672.374 448.149 669.321C449.065 664.131 449.93 658.942 450.795 653.752C451.66 648.715 452.524 643.677 453.389 638.64C454.305 633.247 455.272 627.854 456.187 622.46C457.002 617.627 457.866 612.742 458.68 607.909C459.444 603.38 460.41 598.903 460.919 594.374C461.631 587.862 459.698 582.01 455.17 577.228C451.609 573.513 447.844 570.003 444.181 566.441C436.143 558.606 428.155 550.77 420.117 542.934C413.808 536.778 407.5 530.571 401.14 524.465C398.749 522.175 396.561 519.733 395.137 516.731C391.372 508.997 392.847 499.025 398.698 492.716C402.361 488.747 406.838 486.508 412.18 485.745C418.59 484.88 424.95 483.862 431.309 482.947C436.6 482.183 441.942 481.42 447.233 480.657C452.881 479.843 458.528 478.978 464.175 478.164C471.45 477.095 478.776 475.976 486.102 475.009C490.885 474.399 495.107 472.77 498.77 469.616C501.467 467.326 503.298 464.426 504.825 461.221C506.656 457.354 508.589 453.538 510.523 449.671C514.694 441.276 518.815 432.829 522.987 424.434C527.057 416.242 531.076 408.051 535.146 399.859C536.469 397.213 537.639 394.517 539.166 392.023C542.422 386.783 547.204 383.526 553.258 382.407C558.905 381.339 564.298 382.254 569.182 385.358C572.438 387.393 575.033 390.141 576.712 393.601C584.699 409.679 592.636 425.757 600.572 441.835C603.218 447.178 605.762 452.52 608.458 457.812C609.628 460.05 609.679 462.238 609.018 464.579C608.102 467.784 606.321 470.481 604.236 473.025C598.385 480.097 590.855 484.676 582.257 487.526C580.782 488.035 580.12 487.831 579.306 486.457C577.577 483.404 575.847 480.301 574.219 477.197C572.184 473.228 570.251 469.209 568.317 465.24C564.858 458.27 561.449 451.299 557.99 444.328C557.837 444.023 557.633 443.769 557.43 443.362C557.226 443.718 557.074 443.972 556.921 444.227C553.207 451.706 549.544 459.135 545.83 466.614C543.083 472.211 540.438 477.859 537.436 483.303C531.992 493.173 524.157 500.806 514.338 506.402C507.775 510.168 500.704 512.559 493.174 513.678C487.171 514.594 481.117 515.408 475.113 516.273C470.178 516.985 465.294 517.749 460.359 518.461C458.019 518.817 455.679 519.122 453.389 519.479C453.084 519.479 452.779 519.631 452.372 519.733C452.626 520.038 452.779 520.242 452.982 520.445C458.121 525.482 463.31 530.52 468.499 535.557C472.976 539.932 477.555 544.257 482.032 548.684C491.19 557.791 496.939 568.731 499.33 581.4C500.144 585.725 500.551 590.05 500.297 594.425C500.042 598.038 499.534 601.701 498.974 605.263C498.109 610.707 497.142 616.151 496.176 621.595C495.311 626.633 494.446 631.721 493.581 636.758C493.225 638.691 492.92 640.625 492.564 642.558C492.564 642.66 492.564 642.812 492.564 643.067C492.971 642.914 493.276 642.812 493.581 642.66C500.958 638.793 508.335 634.875 515.763 631.008C521.41 628.057 527.006 625.055 532.755 622.308C538.097 619.764 543.795 618.339 549.646 617.525C553.513 617.016 557.379 616.914 561.246 617.118C568.47 617.525 575.491 619.102 582.054 622.155C587.294 624.597 592.382 627.396 597.571 630.092C601.336 632.026 605.1 634.01 608.814 635.994C612.986 638.182 617.158 640.37 621.33 642.558C621.635 642.711 621.94 642.863 622.449 643.118C622.347 642.405 622.347 641.846 622.246 641.286C620.567 631.466 618.888 621.646 617.209 611.826C616.598 608.214 615.937 604.601 615.377 600.938C615.072 599.005 614.919 597.071 614.869 595.087C614.767 592.797 614.716 590.457 614.869 588.167C615.276 581.909 616.649 575.803 618.939 569.952C622.347 561.15 627.638 553.619 634.456 547.107C639.645 542.171 644.733 537.083 649.871 532.046C653.89 528.128 657.909 524.261 661.878 520.344C662.081 520.14 662.285 519.937 662.641 519.529C661.878 519.377 661.267 519.224 660.657 519.173C654.501 518.257 648.294 517.393 642.138 516.477C638.068 515.866 633.947 515.306 629.877 514.696C628.452 514.492 627.74 513.119 628.401 511.897C632.624 504.011 637.203 496.43 643.562 490.019C647.785 485.796 652.72 482.743 658.316 480.708C660.962 479.741 663.607 479.945 666.304 480.352C670.17 480.962 674.037 481.471 677.903 482.031C681.719 482.59 685.535 483.15 689.35 483.71C693.217 484.269 697.033 484.88 700.899 485.389C704.664 485.898 708.378 486.661 711.634 488.747C716.976 492.156 720.232 496.99 721.504 503.146C721.707 504.113 721.758 505.079 721.86 506.046C721.86 506.301 722.013 506.555 722.063 506.759V508.031L722.013 508.183Z" fill="#FE9900"/>
<path d="M1256.69 450.148V404H1290.32C1290.32 405.984 1290.32 407.714 1290.32 409.444C1290.32 449.182 1289.71 488.919 1290.58 528.606C1290.98 546.21 1283.4 556.743 1267.94 562.543C1247.03 570.379 1225.81 570.735 1204.85 562.848C1190.66 557.506 1182.36 546.363 1178.45 532.117C1174.12 516.242 1173.92 500.113 1178.19 484.136C1184.4 461.037 1201.14 447.452 1225.05 447.248C1235.53 447.147 1246.01 449.08 1256.69 450.148ZM1256.69 506.32C1256.69 500.011 1256.69 493.702 1256.69 487.342C1256.69 480.863 1253.52 476.844 1247.18 475.283C1246.42 475.08 1245.65 474.825 1244.89 474.622C1227.64 471.06 1213.96 478.794 1210.85 494.465C1209.68 500.418 1209.33 506.676 1209.79 512.731C1210.7 524.485 1214.06 535.678 1227.24 538.528C1234.51 540.105 1242.45 539.036 1249.98 538.324C1254.61 537.866 1256.85 534.355 1256.69 529.42C1256.54 521.737 1256.69 514.003 1256.69 506.32Z" fill="white"/>
<path d="M1349.39 516.7C1350.3 527.283 1356.77 535.373 1366.13 538.222C1377.73 541.784 1389.17 540.614 1400.47 536.899C1404.89 535.424 1409.27 533.796 1414.46 531.964C1414.46 541.377 1414.51 549.976 1414.36 558.625C1414.36 559.592 1413.08 561.068 1412.07 561.424C1390.7 568.903 1368.98 571.956 1347.25 563.713C1330.21 557.252 1319.73 544.226 1315.86 526.367C1311.74 507.44 1313.22 488.97 1322.58 471.722C1328.27 461.24 1337.08 454.219 1348.42 450.352C1361.5 445.925 1374.93 445.213 1388.1 448.622C1409.88 454.27 1419.09 470.857 1422.7 491.412C1423.77 497.62 1423.77 503.98 1424.63 510.238C1425.29 515.173 1423.67 516.802 1418.58 516.7C1397.82 516.445 1377.06 516.598 1356.31 516.598C1354.17 516.598 1352.03 516.598 1349.34 516.598L1349.39 516.7ZM1348.98 494.669H1390.5C1390.24 480.677 1383.17 472.79 1370.91 472.485C1358.55 472.129 1350.2 480.371 1348.98 494.669Z" fill="white"/>
<path d="M902.141 564.578H868.919C868.766 562.899 868.512 561.22 868.512 559.541C868.512 528.097 868.512 496.704 868.512 465.26C868.512 462.512 868.258 459.968 871.87 458.696C896.137 449.894 920.812 444.399 946.708 449.436C966.6 453.303 976.47 465.26 976.673 485.409C976.928 510.492 976.775 535.627 976.775 560.711C976.775 561.831 976.623 563.001 976.47 564.527H943.146V558.066C943.146 538.68 943.146 519.295 943.146 499.96C943.146 480.829 936.126 474.317 916.946 475.589C916.538 475.589 916.131 475.589 915.775 475.639C902.802 476.81 902.141 477.573 902.141 490.497C902.141 513.444 902.141 536.34 902.141 559.287C902.141 560.864 902.141 562.39 902.141 564.68V564.578Z" fill="white"/>
<path d="M1087.95 484.238C1082.61 481.592 1078.13 479.506 1073.8 477.166C1065.97 472.994 1057.63 472.129 1049.08 473.197C1044.14 473.808 1039.67 475.639 1038.75 481.338C1037.78 487.189 1041.04 490.853 1046.18 492.633C1053.25 495.076 1060.53 496.907 1067.65 499.146C1084.95 504.641 1092.02 513.291 1092.58 529.42C1093.14 545.854 1085.51 557.913 1069.58 563.662C1048.37 571.294 1027.25 569.666 1006.65 560.915C1005.53 560.457 1004.26 558.727 1004.21 557.557C1004 548.958 1004.1 540.308 1004.1 530.794C1007.77 532.931 1010.57 534.61 1013.47 536.187C1022.78 541.377 1032.75 544.277 1043.43 544.124C1045.98 544.124 1049.03 544.226 1050.91 542.903C1053.61 541.021 1056.56 538.222 1057.22 535.271C1057.73 533.134 1055.29 528.86 1053.1 527.843C1047.3 525.095 1040.99 523.213 1034.73 521.635C1024.76 519.142 1015.45 515.682 1009.19 506.88C997.389 490.242 1002.99 464.904 1021.5 455.135C1042.77 443.941 1064.29 446.739 1085.3 456.61C1086.63 457.221 1087.74 459.714 1087.8 461.342C1088.05 468.618 1087.9 475.945 1087.9 484.187L1087.95 484.238Z" fill="white"/>
<path d="M801 414.074C812.447 414.074 823.284 413.973 834.12 414.227C835.239 414.227 836.511 416.11 837.325 417.331C837.783 418.043 837.427 419.264 837.427 420.231C837.427 466.277 837.427 512.375 837.427 558.422C837.427 560.355 837.274 562.289 837.173 564.527H801V414.074Z" fill="white"/>
<path d="M1482.07 564.578H1448.49C1448.39 562.645 1448.19 560.915 1448.19 559.185C1448.19 528.555 1448.19 497.874 1448.09 467.244C1448.09 463.53 1449.21 461.342 1452.46 459.765C1471.64 450.505 1491.43 444.552 1513.06 448.113C1514.23 448.317 1515.4 448.419 1516.57 448.724C1525.42 451.013 1525.93 451.675 1525.93 460.681C1525.93 465.972 1525.93 471.264 1525.93 476.148H1482.07V564.527V564.578Z" fill="white"/>
<path d="M1118.06 452.387H1150.82V564.426H1118.06V452.387Z" fill="white"/>
<path d="M1117.04 434.63V409.292H1151.58V434.63H1117.04Z" fill="white"/>
<path d="M824.767 651.844C824.767 655.017 825.202 658.004 826.198 660.804C827.131 663.604 828.5 666.03 830.428 668.084C832.295 670.137 834.659 671.755 837.459 672.937C840.259 674.119 843.556 674.679 847.289 674.679C849.653 674.679 851.831 674.43 853.946 673.932C856.062 673.435 858.052 672.812 860.043 672.066C862.034 671.319 863.901 670.51 865.767 669.639C867.634 668.768 869.563 667.897 871.491 667.026V684.821C869.874 685.319 868.256 685.817 866.514 686.439C864.772 687.061 862.781 687.621 860.479 688.181C858.177 688.741 855.502 689.177 852.515 689.55C849.529 689.924 845.983 690.11 841.938 690.11C835.592 690.11 829.868 689.239 824.829 687.435C819.789 685.63 815.496 683.141 812.012 679.781C808.528 676.421 805.791 672.377 803.862 667.586C801.933 662.795 801 657.319 801 651.284C801 645.248 801.933 640.084 803.862 635.355C805.791 630.626 808.466 626.644 812.012 623.284C815.559 619.924 819.789 617.435 824.829 615.63C829.868 613.826 835.592 612.955 841.938 612.955C845.983 612.955 849.467 613.141 852.515 613.515C855.564 613.888 858.239 614.386 860.479 614.884C862.781 615.444 864.772 616.004 866.514 616.626C868.256 617.248 869.874 617.746 871.491 618.244V636.039C869.5 635.23 867.634 634.359 865.767 633.426C863.901 632.492 861.972 631.746 860.043 630.999C858.052 630.252 856.062 629.63 853.946 629.132C851.831 628.635 849.653 628.386 847.289 628.386C843.556 628.386 840.259 629.008 837.459 630.252C834.659 631.497 832.295 633.239 830.428 635.355C828.562 637.532 827.131 639.959 826.198 642.759C825.264 645.559 824.767 648.546 824.767 651.719V651.844Z" fill="white"/>
<path d="M883.997 587.941H907.826V687.995H883.997V587.941Z" fill="white"/>
<path d="M996.92 676.981C996.92 680.279 994.742 683.204 991.569 684.137C988.894 684.946 986.405 685.63 984.041 686.252C980.121 687.248 975.579 688.119 970.478 688.928C965.376 689.737 959.963 690.11 954.364 690.11C946.96 690.11 941.236 689.115 937.192 687.186C933.148 685.257 930.161 682.83 928.295 679.968C926.428 677.106 925.308 674.057 924.935 670.821C924.562 667.524 924.375 664.599 924.375 661.986V615.319H948.204V661.924C948.204 664.288 948.577 666.404 949.262 668.27C949.946 670.137 951.128 671.63 952.746 672.812C954.364 673.995 956.852 674.555 960.087 674.555C961.892 674.555 963.509 674.368 965.065 674.057C966.62 673.746 967.989 673.31 969.233 672.875C970.602 672.439 971.909 671.879 973.029 671.195V615.257H996.857L996.982 676.919L996.92 676.981Z" fill="white"/>
<path d="M1013.28 588.128H1037.11V616.315C1038.23 615.755 1039.6 615.257 1041.22 614.759C1042.52 614.261 1044.14 613.888 1046.01 613.577C1047.87 613.266 1049.93 613.079 1052.17 613.079C1059.38 613.079 1065.36 614.075 1070.09 616.004C1074.81 617.995 1078.61 620.608 1081.41 623.906C1084.21 627.204 1086.2 631.061 1087.32 635.355C1088.44 639.648 1089 644.19 1089 648.919C1089 654.084 1088.38 659.061 1087.13 663.977C1085.89 668.892 1083.77 673.248 1080.91 677.168C1077.99 681.026 1074.25 684.199 1069.65 686.564C1065.05 688.928 1059.45 690.11 1052.79 690.11C1046.51 690.235 1040.97 689.861 1036.05 689.052C1031.2 688.244 1027.09 687.372 1023.73 686.315C1023.73 686.315 1023.67 686.315 1023.61 686.315C1017.45 684.572 1013.34 678.724 1013.34 672.315V588.128H1013.28ZM1065.17 648.919C1065.17 646.679 1064.98 644.377 1064.61 641.95C1064.24 639.586 1063.43 637.408 1062.25 635.417C1061 633.488 1059.32 631.808 1057.21 630.501C1055.03 629.195 1052.17 628.51 1048.5 628.51C1047.13 628.51 1045.7 628.697 1044.39 629.008C1043.08 629.319 1041.84 629.755 1040.84 630.19C1039.66 630.688 1038.48 631.186 1037.36 631.746V671.132C1038.54 672.004 1039.91 672.688 1041.28 673.248C1042.52 673.746 1043.89 674.119 1045.51 674.492C1047.07 674.866 1048.81 674.866 1050.55 674.492C1053.85 673.932 1056.4 672.75 1058.33 670.946C1060.26 669.141 1061.69 667.026 1062.74 664.599C1063.74 662.172 1064.42 659.559 1064.8 656.821C1065.11 654.084 1065.3 651.408 1065.3 648.919H1065.17Z" fill="white"/>
</svg>
