<svg width="32" height="32" viewBox="0 0 32 32" fill="none" xmlns="http://www.w3.org/2000/svg">
<path d="M12.4799 28.3449L22.4799 17.3449C22.8144 16.9768 22.9998 16.4973 22.9998 15.9999C22.9998 15.5026 22.8144 15.023 22.4799 14.6549L12.4799 3.65492C12.3043 3.45694 12.0911 3.29579 11.8528 3.1808C11.6144 3.06581 11.3555 2.99928 11.0913 2.98507C10.827 2.97085 10.5625 3.00923 10.3132 3.09797C10.0638 3.18672 9.83459 3.32407 9.63873 3.50207C9.44286 3.68007 9.28427 3.89517 9.17216 4.13491C9.06004 4.37465 8.99662 4.63426 8.98557 4.89869C8.97452 5.16312 9.01606 5.42711 9.10779 5.67537C9.19952 5.92363 9.33962 6.15121 9.51995 6.34492L18.3 15.9999L9.52295 25.6549C9.1737 26.0486 8.99369 26.5641 9.02197 27.0896C9.05024 27.6151 9.28451 28.1083 9.67398 28.4623C10.0635 28.8162 10.5767 29.0024 11.1026 28.9804C11.6284 28.9585 12.1244 28.7301 12.483 28.3449H12.4799Z" fill="white"/>
</svg>
