<svg width="32" height="32" viewBox="0 0 32 32" fill="none" xmlns="http://www.w3.org/2000/svg">
<path d="M19.5201 28.3449L9.52005 17.3449C9.18557 16.9768 9.00024 16.4973 9.00024 15.9999C9.00024 15.5026 9.18557 15.023 9.52005 14.6549L19.5201 3.65492C19.6957 3.45694 19.9089 3.29579 20.1472 3.1808C20.3856 3.06581 20.6445 2.99928 20.9087 2.98507C21.173 2.97085 21.4375 3.00923 21.6868 3.09797C21.9362 3.18672 22.1654 3.32407 22.3613 3.50207C22.5571 3.68007 22.7157 3.89517 22.8278 4.13491C22.94 4.37465 23.0034 4.63426 23.0144 4.89869C23.0255 5.16312 22.9839 5.42711 22.8922 5.67537C22.8005 5.92363 22.6604 6.15121 22.48 6.34492L13.7 15.9999L22.477 25.6549C22.8263 26.0486 23.0063 26.5641 22.978 27.0896C22.9498 27.6151 22.7155 28.1083 22.326 28.4623C21.9365 28.8162 21.4233 29.0024 20.8974 28.9804C20.3716 28.9585 19.8756 28.7301 19.517 28.3449H19.5201Z" fill="white"/>
</svg>
